<?xml version="1.0" encoding="UTF-8"?><svg xmlns="http://www.w3.org/2000/svg" xmlns:xlink="http://www.w3.org/1999/xlink" viewBox="0 0 500 500"><defs><style>.cls-1{fill:url(#linear-gradient-2);}.cls-2{fill:url(#linear-gradient);}</style><linearGradient id="linear-gradient" x1="250" y1="500" x2="250" y2="0" gradientUnits="userSpaceOnUse"><stop offset="0" stop-color="#5f79ea"/><stop offset=".16" stop-color="#5882e8"/><stop offset=".42" stop-color="#489be4"/><stop offset=".75" stop-color="#2ec4de"/><stop offset=".99" stop-color="#18e8d9"/></linearGradient><linearGradient id="linear-gradient-2" x1="66.63" y1="332.22" x2="66.63" y2="167.78" gradientTransform="translate(316.63) rotate(-180) scale(1 -1)" xlink:href="#linear-gradient"/></defs><g id="Border"><polygon class="cls-2" points="0 248.2 12.5 248.2 12.5 10.21 487.42 10.21 487.42 485.41 250 485.41 250 500 500 500 500 0 0 0 0 248.2"/></g><g id="KT"><path class="cls-1" d="M242.08,260.69l-6.03-6.59-39.15,74.76h-17.01s46.21-90.17,46.21-90.17l-43.96-70.91h17.65s41.39,65.78,41.39,65.78v-65.78h15.72v66.41h45.61v17.56h-45.61v43.72s.08,21.84,22.75,21.84,25.44-21.19,25.44-21.19h15.02s-1.38,36.11-40.79,36.11-37.14-36.69-37.14-36.69c0,0-.79-34.85-.09-34.85Z"/></g></svg>